<svg xmlns="http://www.w3.org/2000/svg" viewBox="0 0 12 12" width="64" height="64" shape-rendering="crispEdges">
  <rect x="1" y="1" width="1" height="1" fill="#F46A2B"/>
  <rect x="2" y="1" width="1" height="1" fill="#F16636"/>
  <rect x="9" y="1" width="1" height="1" fill="#DF487E"/>
  <rect x="10" y="1" width="1" height="1" fill="#D44581"/>
  <rect x="1" y="2" width="1" height="1" fill="#F16636"/>
  <rect x="9" y="2" width="1" height="1" fill="#D44581"/>
  <rect x="10" y="2" width="1" height="1" fill="#C94384"/>
  <rect x="8" y="3" width="1" height="1" fill="#D44581"/>
  <rect x="9" y="3" width="1" height="1" fill="#C94384"/>
  <rect x="7" y="4" width="1" height="1" fill="#D44581"/>
  <rect x="8" y="4" width="1" height="1" fill="#C94384"/>
  <rect x="2" y="5" width="1" height="1" fill="#E75560"/>
  <rect x="6" y="5" width="1" height="1" fill="#D44581"/>
  <rect x="7" y="5" width="1" height="1" fill="#C94384"/>
  <rect x="2" y="6" width="1" height="1" fill="#E5506A"/>
  <rect x="3" y="6" width="1" height="1" fill="#E24C75"/>
  <rect x="5" y="6" width="1" height="1" fill="#D44581"/>
  <rect x="6" y="6" width="1" height="1" fill="#C94384"/>
  <rect x="3" y="7" width="1" height="1" fill="#DF487E"/>
  <rect x="4" y="7" width="1" height="1" fill="#D44581"/>
  <rect x="5" y="7" width="1" height="1" fill="#C94384"/>
  <rect x="4" y="8" width="1" height="1" fill="#C94384"/>
  <rect x="1" y="9" width="1" height="1" fill="#DF487E"/>
  <rect x="10" y="9" width="1" height="1" fill="#7C3296"/>
  <rect x="1" y="10" width="1" height="1" fill="#D44581"/>
  <rect x="2" y="10" width="1" height="1" fill="#C94384"/>
  <rect x="9" y="10" width="1" height="1" fill="#7C3296"/>
  <rect x="10" y="10" width="1" height="1" fill="#713099"/>
</svg>
